<?xml version="1.0" encoding="utf-8" standalone="no"?>
<!DOCTYPE svg PUBLIC "-//W3C//DTD SVG 1.1//EN"
  "http://www.w3.org/Graphics/SVG/1.1/DTD/svg11.dtd">
<!-- Created with matplotlib (http://matplotlib.org/) -->
<svg height="345pt" version="1.1" viewBox="0 0 460 345" width="460pt" xmlns="http://www.w3.org/2000/svg" xmlns:xlink="http://www.w3.org/1999/xlink">
 <defs>
  <style type="text/css">
*{stroke-linecap:butt;stroke-linejoin:round;}
  </style>
 </defs>
 <g id="figure_1">
  <g id="patch_1">
   <path d="M 0 345.6 
L 460.8 345.6 
L 460.8 0 
L 0 0 
z
" style="fill:#ffffff;"/>
  </g>
  <g id="axes_1">
   <g id="patch_2">
    <path d="M 57.6 307.584 
L 414.72 307.584 
L 414.72 41.472 
L 57.6 41.472 
z
" style="fill:#ffffff;"/>
   </g>
   <g id="matplotlib.axis_1">
    <g id="xtick_1">
     <g id="line2d_1">
      <defs>
       <path d="M 0 0 
L 0 3.5 
" id="mb4309ff051" style="stroke:#000000;stroke-width:0.8;"/>
      </defs>
      <g>
       <use style="stroke:#000000;stroke-width:0.8;" x="67.207124" xlink:href="#mb4309ff051" y="307.584"/>
      </g>
     </g>
     <g id="text_1">
      <!-- 0 -->
      <defs>
       <path d="M 31.78125 66.40625 
Q 24.171875 66.40625 20.328125 58.90625 
Q 16.5 51.421875 16.5 36.375 
Q 16.5 21.390625 20.328125 13.890625 
Q 24.171875 6.390625 31.78125 6.390625 
Q 39.453125 6.390625 43.28125 13.890625 
Q 47.125 21.390625 47.125 36.375 
Q 47.125 51.421875 43.28125 58.90625 
Q 39.453125 66.40625 31.78125 66.40625 
M 31.78125 74.21875 
Q 44.046875 74.21875 50.515625 64.515625 
Q 56.984375 54.828125 56.984375 36.375 
Q 56.984375 17.96875 50.515625 8.265625 
Q 44.046875 -1.421875 31.78125 -1.421875 
Q 19.53125 -1.421875 13.0625 8.265625 
Q 6.59375 17.96875 6.59375 36.375 
Q 6.59375 54.828125 13.0625 64.515625 
Q 19.53125 74.21875 31.78125 74.21875 
" id="DejaVuSans-30"/>
      </defs>
      <g transform="translate(64.025874 322.182437)scale(0.1 -0.1)">
       <use xlink:href="#DejaVuSans-30"/>
      </g>
     </g>
    </g>
    <g id="xtick_2">
     <g id="line2d_2">
      <g>
       <use style="stroke:#000000;stroke-width:0.8;" x="133.463154" xlink:href="#mb4309ff051" y="307.584"/>
      </g>
     </g>
     <g id="text_2">
      <!-- 1 -->
      <defs>
       <path d="M 12.40625 8.296875 
L 28.515625 8.296875 
L 28.515625 63.921875 
L 10.984375 60.40625 
L 10.984375 69.390625 
L 28.421875 72.90625 
L 38.28125 72.90625 
L 38.28125 8.296875 
L 54.390625 8.296875 
L 54.390625 0 
L 12.40625 0 
z
" id="DejaVuSans-31"/>
      </defs>
      <g transform="translate(130.281904 322.182437)scale(0.1 -0.1)">
       <use xlink:href="#DejaVuSans-31"/>
      </g>
     </g>
    </g>
    <g id="xtick_3">
     <g id="line2d_3">
      <g>
       <use style="stroke:#000000;stroke-width:0.8;" x="199.719184" xlink:href="#mb4309ff051" y="307.584"/>
      </g>
     </g>
     <g id="text_3">
      <!-- 2 -->
      <defs>
       <path d="M 19.1875 8.296875 
L 53.609375 8.296875 
L 53.609375 0 
L 7.328125 0 
L 7.328125 8.296875 
Q 12.9375 14.109375 22.625 23.890625 
Q 32.328125 33.6875 34.8125 36.53125 
Q 39.546875 41.84375 41.421875 45.53125 
Q 43.3125 49.21875 43.3125 52.78125 
Q 43.3125 58.59375 39.234375 62.25 
Q 35.15625 65.921875 28.609375 65.921875 
Q 23.96875 65.921875 18.8125 64.3125 
Q 13.671875 62.703125 7.8125 59.421875 
L 7.8125 69.390625 
Q 13.765625 71.78125 18.9375 73 
Q 24.125 74.21875 28.421875 74.21875 
Q 39.75 74.21875 46.484375 68.546875 
Q 53.21875 62.890625 53.21875 53.421875 
Q 53.21875 48.921875 51.53125 44.890625 
Q 49.859375 40.875 45.40625 35.40625 
Q 44.1875 33.984375 37.640625 27.21875 
Q 31.109375 20.453125 19.1875 8.296875 
" id="DejaVuSans-32"/>
      </defs>
      <g transform="translate(196.537934 322.182437)scale(0.1 -0.1)">
       <use xlink:href="#DejaVuSans-32"/>
      </g>
     </g>
    </g>
    <g id="xtick_4">
     <g id="line2d_4">
      <g>
       <use style="stroke:#000000;stroke-width:0.8;" x="265.975213" xlink:href="#mb4309ff051" y="307.584"/>
      </g>
     </g>
     <g id="text_4">
      <!-- 3 -->
      <defs>
       <path d="M 40.578125 39.3125 
Q 47.65625 37.796875 51.625 33 
Q 55.609375 28.21875 55.609375 21.1875 
Q 55.609375 10.40625 48.1875 4.484375 
Q 40.765625 -1.421875 27.09375 -1.421875 
Q 22.515625 -1.421875 17.65625 -0.515625 
Q 12.796875 0.390625 7.625 2.203125 
L 7.625 11.71875 
Q 11.71875 9.328125 16.59375 8.109375 
Q 21.484375 6.890625 26.8125 6.890625 
Q 36.078125 6.890625 40.9375 10.546875 
Q 45.796875 14.203125 45.796875 21.1875 
Q 45.796875 27.640625 41.28125 31.265625 
Q 36.765625 34.90625 28.71875 34.90625 
L 20.21875 34.90625 
L 20.21875 43.015625 
L 29.109375 43.015625 
Q 36.375 43.015625 40.234375 45.921875 
Q 44.09375 48.828125 44.09375 54.296875 
Q 44.09375 59.90625 40.109375 62.90625 
Q 36.140625 65.921875 28.71875 65.921875 
Q 24.65625 65.921875 20.015625 65.03125 
Q 15.375 64.15625 9.8125 62.3125 
L 9.8125 71.09375 
Q 15.4375 72.65625 20.34375 73.4375 
Q 25.25 74.21875 29.59375 74.21875 
Q 40.828125 74.21875 47.359375 69.109375 
Q 53.90625 64.015625 53.90625 55.328125 
Q 53.90625 49.265625 50.4375 45.09375 
Q 46.96875 40.921875 40.578125 39.3125 
" id="DejaVuSans-33"/>
      </defs>
      <g transform="translate(262.793963 322.182437)scale(0.1 -0.1)">
       <use xlink:href="#DejaVuSans-33"/>
      </g>
     </g>
    </g>
    <g id="xtick_5">
     <g id="line2d_5">
      <g>
       <use style="stroke:#000000;stroke-width:0.8;" x="332.231243" xlink:href="#mb4309ff051" y="307.584"/>
      </g>
     </g>
     <g id="text_5">
      <!-- 4 -->
      <defs>
       <path d="M 37.796875 64.3125 
L 12.890625 25.390625 
L 37.796875 25.390625 
z
M 35.203125 72.90625 
L 47.609375 72.90625 
L 47.609375 25.390625 
L 58.015625 25.390625 
L 58.015625 17.1875 
L 47.609375 17.1875 
L 47.609375 0 
L 37.796875 0 
L 37.796875 17.1875 
L 4.890625 17.1875 
L 4.890625 26.703125 
z
" id="DejaVuSans-34"/>
      </defs>
      <g transform="translate(329.049993 322.182437)scale(0.1 -0.1)">
       <use xlink:href="#DejaVuSans-34"/>
      </g>
     </g>
    </g>
    <g id="xtick_6">
     <g id="line2d_6">
      <g>
       <use style="stroke:#000000;stroke-width:0.8;" x="398.487273" xlink:href="#mb4309ff051" y="307.584"/>
      </g>
     </g>
     <g id="text_6">
      <!-- 5 -->
      <defs>
       <path d="M 10.796875 72.90625 
L 49.515625 72.90625 
L 49.515625 64.59375 
L 19.828125 64.59375 
L 19.828125 46.734375 
Q 21.96875 47.46875 24.109375 47.828125 
Q 26.265625 48.1875 28.421875 48.1875 
Q 40.625 48.1875 47.75 41.5 
Q 54.890625 34.8125 54.890625 23.390625 
Q 54.890625 11.625 47.5625 5.09375 
Q 40.234375 -1.421875 26.90625 -1.421875 
Q 22.3125 -1.421875 17.546875 -0.640625 
Q 12.796875 0.140625 7.71875 1.703125 
L 7.71875 11.625 
Q 12.109375 9.234375 16.796875 8.0625 
Q 21.484375 6.890625 26.703125 6.890625 
Q 35.15625 6.890625 40.078125 11.328125 
Q 45.015625 15.765625 45.015625 23.390625 
Q 45.015625 31 40.078125 35.4375 
Q 35.15625 39.890625 26.703125 39.890625 
Q 22.75 39.890625 18.8125 39.015625 
Q 14.890625 38.140625 10.796875 36.28125 
z
" id="DejaVuSans-35"/>
      </defs>
      <g transform="translate(395.306023 322.182437)scale(0.1 -0.1)">
       <use xlink:href="#DejaVuSans-35"/>
      </g>
     </g>
    </g>
   </g>
   <g id="matplotlib.axis_2">
    <g id="ytick_1">
     <g id="line2d_7">
      <defs>
       <path d="M 0 0 
L -3.5 0 
" id="ma2faf13c85" style="stroke:#000000;stroke-width:0.8;"/>
      </defs>
      <g>
       <use style="stroke:#000000;stroke-width:0.8;" x="57.6" xlink:href="#ma2faf13c85" y="295.492302"/>
      </g>
     </g>
     <g id="text_7">
      <!-- 0.00 -->
      <defs>
       <path d="M 10.6875 12.40625 
L 21 12.40625 
L 21 0 
L 10.6875 0 
z
" id="DejaVuSans-2e"/>
      </defs>
      <g transform="translate(28.334375 299.291521)scale(0.1 -0.1)">
       <use xlink:href="#DejaVuSans-30"/>
       <use x="63.623047" xlink:href="#DejaVuSans-2e"/>
       <use x="95.410156" xlink:href="#DejaVuSans-30"/>
       <use x="159.033203" xlink:href="#DejaVuSans-30"/>
      </g>
     </g>
    </g>
    <g id="ytick_2">
     <g id="line2d_8">
      <g>
       <use style="stroke:#000000;stroke-width:0.8;" x="57.6" xlink:href="#ma2faf13c85" y="245.36526"/>
      </g>
     </g>
     <g id="text_8">
      <!-- 0.05 -->
      <g transform="translate(28.334375 249.164479)scale(0.1 -0.1)">
       <use xlink:href="#DejaVuSans-30"/>
       <use x="63.623047" xlink:href="#DejaVuSans-2e"/>
       <use x="95.410156" xlink:href="#DejaVuSans-30"/>
       <use x="159.033203" xlink:href="#DejaVuSans-35"/>
      </g>
     </g>
    </g>
    <g id="ytick_3">
     <g id="line2d_9">
      <g>
       <use style="stroke:#000000;stroke-width:0.8;" x="57.6" xlink:href="#ma2faf13c85" y="195.238218"/>
      </g>
     </g>
     <g id="text_9">
      <!-- 0.10 -->
      <g transform="translate(28.334375 199.037437)scale(0.1 -0.1)">
       <use xlink:href="#DejaVuSans-30"/>
       <use x="63.623047" xlink:href="#DejaVuSans-2e"/>
       <use x="95.410156" xlink:href="#DejaVuSans-31"/>
       <use x="159.033203" xlink:href="#DejaVuSans-30"/>
      </g>
     </g>
    </g>
    <g id="ytick_4">
     <g id="line2d_10">
      <g>
       <use style="stroke:#000000;stroke-width:0.8;" x="57.6" xlink:href="#ma2faf13c85" y="145.111176"/>
      </g>
     </g>
     <g id="text_10">
      <!-- 0.15 -->
      <g transform="translate(28.334375 148.910395)scale(0.1 -0.1)">
       <use xlink:href="#DejaVuSans-30"/>
       <use x="63.623047" xlink:href="#DejaVuSans-2e"/>
       <use x="95.410156" xlink:href="#DejaVuSans-31"/>
       <use x="159.033203" xlink:href="#DejaVuSans-35"/>
      </g>
     </g>
    </g>
    <g id="ytick_5">
     <g id="line2d_11">
      <g>
       <use style="stroke:#000000;stroke-width:0.8;" x="57.6" xlink:href="#ma2faf13c85" y="94.984134"/>
      </g>
     </g>
     <g id="text_11">
      <!-- 0.20 -->
      <g transform="translate(28.334375 98.783353)scale(0.1 -0.1)">
       <use xlink:href="#DejaVuSans-30"/>
       <use x="63.623047" xlink:href="#DejaVuSans-2e"/>
       <use x="95.410156" xlink:href="#DejaVuSans-32"/>
       <use x="159.033203" xlink:href="#DejaVuSans-30"/>
      </g>
     </g>
    </g>
    <g id="ytick_6">
     <g id="line2d_12">
      <g>
       <use style="stroke:#000000;stroke-width:0.8;" x="57.6" xlink:href="#ma2faf13c85" y="44.857092"/>
      </g>
     </g>
     <g id="text_12">
      <!-- 0.25 -->
      <g transform="translate(28.334375 48.65631)scale(0.1 -0.1)">
       <use xlink:href="#DejaVuSans-30"/>
       <use x="63.623047" xlink:href="#DejaVuSans-2e"/>
       <use x="95.410156" xlink:href="#DejaVuSans-32"/>
       <use x="159.033203" xlink:href="#DejaVuSans-35"/>
      </g>
     </g>
    </g>
   </g>
   <g id="line2d_13">
    <defs>
     <path d="M 0 3 
C 0.795609 3 1.55874 2.683901 2.12132 2.12132 
C 2.683901 1.55874 3 0.795609 3 0 
C 3 -0.795609 2.683901 -1.55874 2.12132 -2.12132 
C 1.55874 -2.683901 0.795609 -3 0 -3 
C -0.795609 -3 -1.55874 -2.683901 -2.12132 -2.12132 
C -2.683901 -1.55874 -3 -0.795609 -3 0 
C -3 0.795609 -2.683901 1.55874 -2.12132 2.12132 
C -1.55874 2.683901 -0.795609 3 0 3 
z
" id="m3b3a2714e3" style="stroke:#ff0000;"/>
    </defs>
    <g clip-path="url(#p25482af7df)">
     <use style="fill:#ff0000;stroke:#ff0000;" x="73.832727" xlink:href="#m3b3a2714e3" y="295.485658"/>
     <use style="fill:#ff0000;stroke:#ff0000;" x="80.45833" xlink:href="#m3b3a2714e3" y="295.487044"/>
     <use style="fill:#ff0000;stroke:#ff0000;" x="87.083933" xlink:href="#m3b3a2714e3" y="295.488"/>
     <use style="fill:#ff0000;stroke:#ff0000;" x="93.709536" xlink:href="#m3b3a2714e3" y="295.486375"/>
     <use style="fill:#ff0000;stroke:#ff0000;" x="100.335139" xlink:href="#m3b3a2714e3" y="295.48298"/>
     <use style="fill:#ff0000;stroke:#ff0000;" x="106.960742" xlink:href="#m3b3a2714e3" y="295.485801"/>
     <use style="fill:#ff0000;stroke:#ff0000;" x="113.586345" xlink:href="#m3b3a2714e3" y="295.483172"/>
     <use style="fill:#ff0000;stroke:#ff0000;" x="120.211948" xlink:href="#m3b3a2714e3" y="295.481451"/>
     <use style="fill:#ff0000;stroke:#ff0000;" x="126.837551" xlink:href="#m3b3a2714e3" y="295.48059"/>
     <use style="fill:#ff0000;stroke:#ff0000;" x="133.463154" xlink:href="#m3b3a2714e3" y="295.477292"/>
     <use style="fill:#ff0000;stroke:#ff0000;" x="140.088757" xlink:href="#m3b3a2714e3" y="295.476097"/>
     <use style="fill:#ff0000;stroke:#ff0000;" x="146.71436" xlink:href="#m3b3a2714e3" y="295.472655"/>
     <use style="fill:#ff0000;stroke:#ff0000;" x="153.339963" xlink:href="#m3b3a2714e3" y="295.468543"/>
     <use style="fill:#ff0000;stroke:#ff0000;" x="159.965566" xlink:href="#m3b3a2714e3" y="295.463859"/>
     <use style="fill:#ff0000;stroke:#ff0000;" x="166.591169" xlink:href="#m3b3a2714e3" y="295.455636"/>
     <use style="fill:#ff0000;stroke:#ff0000;" x="173.216772" xlink:href="#m3b3a2714e3" y="295.450043"/>
     <use style="fill:#ff0000;stroke:#ff0000;" x="179.842375" xlink:href="#m3b3a2714e3" y="295.433168"/>
     <use style="fill:#ff0000;stroke:#ff0000;" x="186.467978" xlink:href="#m3b3a2714e3" y="295.417153"/>
     <use style="fill:#ff0000;stroke:#ff0000;" x="193.093581" xlink:href="#m3b3a2714e3" y="295.395641"/>
     <use style="fill:#ff0000;stroke:#ff0000;" x="199.719184" xlink:href="#m3b3a2714e3" y="295.392581"/>
     <use style="fill:#ff0000;stroke:#ff0000;" x="206.344787" xlink:href="#m3b3a2714e3" y="295.365763"/>
     <use style="fill:#ff0000;stroke:#ff0000;" x="212.97039" xlink:href="#m3b3a2714e3" y="295.333829"/>
     <use style="fill:#ff0000;stroke:#ff0000;" x="219.595993" xlink:href="#m3b3a2714e3" y="295.277037"/>
     <use style="fill:#ff0000;stroke:#ff0000;" x="226.221596" xlink:href="#m3b3a2714e3" y="295.250314"/>
     <use style="fill:#ff0000;stroke:#ff0000;" x="232.847199" xlink:href="#m3b3a2714e3" y="295.170767"/>
     <use style="fill:#ff0000;stroke:#ff0000;" x="239.472801" xlink:href="#m3b3a2714e3" y="295.089307"/>
     <use style="fill:#ff0000;stroke:#ff0000;" x="246.098404" xlink:href="#m3b3a2714e3" y="294.985523"/>
     <use style="fill:#ff0000;stroke:#ff0000;" x="252.724007" xlink:href="#m3b3a2714e3" y="294.847415"/>
     <use style="fill:#ff0000;stroke:#ff0000;" x="259.34961" xlink:href="#m3b3a2714e3" y="294.649981"/>
     <use style="fill:#ff0000;stroke:#ff0000;" x="265.975213" xlink:href="#m3b3a2714e3" y="294.444372"/>
     <use style="fill:#ff0000;stroke:#ff0000;" x="272.600816" xlink:href="#m3b3a2714e3" y="294.152427"/>
     <use style="fill:#ff0000;stroke:#ff0000;" x="279.226419" xlink:href="#m3b3a2714e3" y="293.720271"/>
     <use style="fill:#ff0000;stroke:#ff0000;" x="285.852022" xlink:href="#m3b3a2714e3" y="293.347011"/>
     <use style="fill:#ff0000;stroke:#ff0000;" x="292.477625" xlink:href="#m3b3a2714e3" y="292.633428"/>
     <use style="fill:#ff0000;stroke:#ff0000;" x="299.103228" xlink:href="#m3b3a2714e3" y="291.883321"/>
     <use style="fill:#ff0000;stroke:#ff0000;" x="305.728831" xlink:href="#m3b3a2714e3" y="291.015041"/>
     <use style="fill:#ff0000;stroke:#ff0000;" x="312.354434" xlink:href="#m3b3a2714e3" y="289.392018"/>
     <use style="fill:#ff0000;stroke:#ff0000;" x="318.980037" xlink:href="#m3b3a2714e3" y="287.957251"/>
     <use style="fill:#ff0000;stroke:#ff0000;" x="325.60564" xlink:href="#m3b3a2714e3" y="286.116906"/>
     <use style="fill:#ff0000;stroke:#ff0000;" x="332.231243" xlink:href="#m3b3a2714e3" y="283.127237"/>
     <use style="fill:#ff0000;stroke:#ff0000;" x="338.856846" xlink:href="#m3b3a2714e3" y="280.165917"/>
     <use style="fill:#ff0000;stroke:#ff0000;" x="345.482449" xlink:href="#m3b3a2714e3" y="275.390879"/>
     <use style="fill:#ff0000;stroke:#ff0000;" x="352.108052" xlink:href="#m3b3a2714e3" y="267.588359"/>
     <use style="fill:#ff0000;stroke:#ff0000;" x="358.733655" xlink:href="#m3b3a2714e3" y="256.328161"/>
     <use style="fill:#ff0000;stroke:#ff0000;" x="365.359258" xlink:href="#m3b3a2714e3" y="241.889703"/>
     <use style="fill:#ff0000;stroke:#ff0000;" x="371.984861" xlink:href="#m3b3a2714e3" y="213.815526"/>
     <use style="fill:#ff0000;stroke:#ff0000;" x="378.610464" xlink:href="#m3b3a2714e3" y="188.756642"/>
     <use style="fill:#ff0000;stroke:#ff0000;" x="385.236067" xlink:href="#m3b3a2714e3" y="156.502551"/>
     <use style="fill:#ff0000;stroke:#ff0000;" x="391.86167" xlink:href="#m3b3a2714e3" y="109.6402"/>
     <use style="fill:#ff0000;stroke:#ff0000;" x="398.487273" xlink:href="#m3b3a2714e3" y="53.568"/>
    </g>
   </g>
   <g id="line2d_14">
    <g clip-path="url(#p25482af7df)">
     <use style="fill:#ff0000;stroke:#ff0000;" x="73.832727" xlink:href="#m3b3a2714e3" y="295.485658"/>
     <use style="fill:#ff0000;stroke:#ff0000;" x="80.45833" xlink:href="#m3b3a2714e3" y="295.487044"/>
     <use style="fill:#ff0000;stroke:#ff0000;" x="87.083933" xlink:href="#m3b3a2714e3" y="295.488"/>
     <use style="fill:#ff0000;stroke:#ff0000;" x="93.709536" xlink:href="#m3b3a2714e3" y="295.486375"/>
     <use style="fill:#ff0000;stroke:#ff0000;" x="100.335139" xlink:href="#m3b3a2714e3" y="295.48298"/>
     <use style="fill:#ff0000;stroke:#ff0000;" x="106.960742" xlink:href="#m3b3a2714e3" y="295.485801"/>
     <use style="fill:#ff0000;stroke:#ff0000;" x="113.586345" xlink:href="#m3b3a2714e3" y="295.483172"/>
     <use style="fill:#ff0000;stroke:#ff0000;" x="120.211948" xlink:href="#m3b3a2714e3" y="295.481451"/>
     <use style="fill:#ff0000;stroke:#ff0000;" x="126.837551" xlink:href="#m3b3a2714e3" y="295.48059"/>
     <use style="fill:#ff0000;stroke:#ff0000;" x="133.463154" xlink:href="#m3b3a2714e3" y="295.477292"/>
     <use style="fill:#ff0000;stroke:#ff0000;" x="140.088757" xlink:href="#m3b3a2714e3" y="295.476097"/>
     <use style="fill:#ff0000;stroke:#ff0000;" x="146.71436" xlink:href="#m3b3a2714e3" y="295.472655"/>
     <use style="fill:#ff0000;stroke:#ff0000;" x="153.339963" xlink:href="#m3b3a2714e3" y="295.468543"/>
     <use style="fill:#ff0000;stroke:#ff0000;" x="159.965566" xlink:href="#m3b3a2714e3" y="295.463859"/>
     <use style="fill:#ff0000;stroke:#ff0000;" x="166.591169" xlink:href="#m3b3a2714e3" y="295.455636"/>
     <use style="fill:#ff0000;stroke:#ff0000;" x="173.216772" xlink:href="#m3b3a2714e3" y="295.450043"/>
     <use style="fill:#ff0000;stroke:#ff0000;" x="179.842375" xlink:href="#m3b3a2714e3" y="295.433168"/>
     <use style="fill:#ff0000;stroke:#ff0000;" x="186.467978" xlink:href="#m3b3a2714e3" y="295.417153"/>
     <use style="fill:#ff0000;stroke:#ff0000;" x="193.093581" xlink:href="#m3b3a2714e3" y="295.395641"/>
     <use style="fill:#ff0000;stroke:#ff0000;" x="199.719184" xlink:href="#m3b3a2714e3" y="295.392581"/>
     <use style="fill:#ff0000;stroke:#ff0000;" x="206.344787" xlink:href="#m3b3a2714e3" y="295.365763"/>
     <use style="fill:#ff0000;stroke:#ff0000;" x="212.97039" xlink:href="#m3b3a2714e3" y="295.333829"/>
     <use style="fill:#ff0000;stroke:#ff0000;" x="219.595993" xlink:href="#m3b3a2714e3" y="295.277037"/>
     <use style="fill:#ff0000;stroke:#ff0000;" x="226.221596" xlink:href="#m3b3a2714e3" y="295.250314"/>
     <use style="fill:#ff0000;stroke:#ff0000;" x="232.847199" xlink:href="#m3b3a2714e3" y="295.170767"/>
     <use style="fill:#ff0000;stroke:#ff0000;" x="239.472801" xlink:href="#m3b3a2714e3" y="295.089307"/>
     <use style="fill:#ff0000;stroke:#ff0000;" x="246.098404" xlink:href="#m3b3a2714e3" y="294.985523"/>
     <use style="fill:#ff0000;stroke:#ff0000;" x="252.724007" xlink:href="#m3b3a2714e3" y="294.847415"/>
     <use style="fill:#ff0000;stroke:#ff0000;" x="259.34961" xlink:href="#m3b3a2714e3" y="294.649981"/>
     <use style="fill:#ff0000;stroke:#ff0000;" x="265.975213" xlink:href="#m3b3a2714e3" y="294.444372"/>
     <use style="fill:#ff0000;stroke:#ff0000;" x="272.600816" xlink:href="#m3b3a2714e3" y="294.152427"/>
     <use style="fill:#ff0000;stroke:#ff0000;" x="279.226419" xlink:href="#m3b3a2714e3" y="293.720271"/>
     <use style="fill:#ff0000;stroke:#ff0000;" x="285.852022" xlink:href="#m3b3a2714e3" y="293.347011"/>
     <use style="fill:#ff0000;stroke:#ff0000;" x="292.477625" xlink:href="#m3b3a2714e3" y="292.633428"/>
     <use style="fill:#ff0000;stroke:#ff0000;" x="299.103228" xlink:href="#m3b3a2714e3" y="291.883321"/>
     <use style="fill:#ff0000;stroke:#ff0000;" x="305.728831" xlink:href="#m3b3a2714e3" y="291.015041"/>
     <use style="fill:#ff0000;stroke:#ff0000;" x="312.354434" xlink:href="#m3b3a2714e3" y="289.392018"/>
     <use style="fill:#ff0000;stroke:#ff0000;" x="318.980037" xlink:href="#m3b3a2714e3" y="287.957251"/>
     <use style="fill:#ff0000;stroke:#ff0000;" x="325.60564" xlink:href="#m3b3a2714e3" y="286.116906"/>
     <use style="fill:#ff0000;stroke:#ff0000;" x="332.231243" xlink:href="#m3b3a2714e3" y="283.127237"/>
     <use style="fill:#ff0000;stroke:#ff0000;" x="338.856846" xlink:href="#m3b3a2714e3" y="280.165917"/>
     <use style="fill:#ff0000;stroke:#ff0000;" x="345.482449" xlink:href="#m3b3a2714e3" y="275.390879"/>
     <use style="fill:#ff0000;stroke:#ff0000;" x="352.108052" xlink:href="#m3b3a2714e3" y="267.588359"/>
     <use style="fill:#ff0000;stroke:#ff0000;" x="358.733655" xlink:href="#m3b3a2714e3" y="256.328161"/>
     <use style="fill:#ff0000;stroke:#ff0000;" x="365.359258" xlink:href="#m3b3a2714e3" y="241.889703"/>
     <use style="fill:#ff0000;stroke:#ff0000;" x="371.984861" xlink:href="#m3b3a2714e3" y="213.815526"/>
     <use style="fill:#ff0000;stroke:#ff0000;" x="378.610464" xlink:href="#m3b3a2714e3" y="188.756642"/>
     <use style="fill:#ff0000;stroke:#ff0000;" x="385.236067" xlink:href="#m3b3a2714e3" y="156.502551"/>
     <use style="fill:#ff0000;stroke:#ff0000;" x="391.86167" xlink:href="#m3b3a2714e3" y="109.6402"/>
     <use style="fill:#ff0000;stroke:#ff0000;" x="398.487273" xlink:href="#m3b3a2714e3" y="53.568"/>
    </g>
   </g>
   <g id="line2d_15">
    <g clip-path="url(#p25482af7df)">
     <use style="fill:#ff0000;stroke:#ff0000;" x="73.832727" xlink:href="#m3b3a2714e3" y="295.485658"/>
     <use style="fill:#ff0000;stroke:#ff0000;" x="80.45833" xlink:href="#m3b3a2714e3" y="295.487044"/>
     <use style="fill:#ff0000;stroke:#ff0000;" x="87.083933" xlink:href="#m3b3a2714e3" y="295.488"/>
     <use style="fill:#ff0000;stroke:#ff0000;" x="93.709536" xlink:href="#m3b3a2714e3" y="295.486375"/>
     <use style="fill:#ff0000;stroke:#ff0000;" x="100.335139" xlink:href="#m3b3a2714e3" y="295.48298"/>
     <use style="fill:#ff0000;stroke:#ff0000;" x="106.960742" xlink:href="#m3b3a2714e3" y="295.485801"/>
     <use style="fill:#ff0000;stroke:#ff0000;" x="113.586345" xlink:href="#m3b3a2714e3" y="295.483172"/>
     <use style="fill:#ff0000;stroke:#ff0000;" x="120.211948" xlink:href="#m3b3a2714e3" y="295.481451"/>
     <use style="fill:#ff0000;stroke:#ff0000;" x="126.837551" xlink:href="#m3b3a2714e3" y="295.48059"/>
     <use style="fill:#ff0000;stroke:#ff0000;" x="133.463154" xlink:href="#m3b3a2714e3" y="295.477292"/>
     <use style="fill:#ff0000;stroke:#ff0000;" x="140.088757" xlink:href="#m3b3a2714e3" y="295.476097"/>
     <use style="fill:#ff0000;stroke:#ff0000;" x="146.71436" xlink:href="#m3b3a2714e3" y="295.472655"/>
     <use style="fill:#ff0000;stroke:#ff0000;" x="153.339963" xlink:href="#m3b3a2714e3" y="295.468543"/>
     <use style="fill:#ff0000;stroke:#ff0000;" x="159.965566" xlink:href="#m3b3a2714e3" y="295.463859"/>
     <use style="fill:#ff0000;stroke:#ff0000;" x="166.591169" xlink:href="#m3b3a2714e3" y="295.455636"/>
     <use style="fill:#ff0000;stroke:#ff0000;" x="173.216772" xlink:href="#m3b3a2714e3" y="295.450043"/>
     <use style="fill:#ff0000;stroke:#ff0000;" x="179.842375" xlink:href="#m3b3a2714e3" y="295.433168"/>
     <use style="fill:#ff0000;stroke:#ff0000;" x="186.467978" xlink:href="#m3b3a2714e3" y="295.417153"/>
     <use style="fill:#ff0000;stroke:#ff0000;" x="193.093581" xlink:href="#m3b3a2714e3" y="295.395641"/>
     <use style="fill:#ff0000;stroke:#ff0000;" x="199.719184" xlink:href="#m3b3a2714e3" y="295.392581"/>
     <use style="fill:#ff0000;stroke:#ff0000;" x="206.344787" xlink:href="#m3b3a2714e3" y="295.365763"/>
     <use style="fill:#ff0000;stroke:#ff0000;" x="212.97039" xlink:href="#m3b3a2714e3" y="295.333829"/>
     <use style="fill:#ff0000;stroke:#ff0000;" x="219.595993" xlink:href="#m3b3a2714e3" y="295.277037"/>
     <use style="fill:#ff0000;stroke:#ff0000;" x="226.221596" xlink:href="#m3b3a2714e3" y="295.250314"/>
     <use style="fill:#ff0000;stroke:#ff0000;" x="232.847199" xlink:href="#m3b3a2714e3" y="295.170767"/>
     <use style="fill:#ff0000;stroke:#ff0000;" x="239.472801" xlink:href="#m3b3a2714e3" y="295.089307"/>
     <use style="fill:#ff0000;stroke:#ff0000;" x="246.098404" xlink:href="#m3b3a2714e3" y="294.985523"/>
     <use style="fill:#ff0000;stroke:#ff0000;" x="252.724007" xlink:href="#m3b3a2714e3" y="294.847415"/>
     <use style="fill:#ff0000;stroke:#ff0000;" x="259.34961" xlink:href="#m3b3a2714e3" y="294.649981"/>
     <use style="fill:#ff0000;stroke:#ff0000;" x="265.975213" xlink:href="#m3b3a2714e3" y="294.444372"/>
     <use style="fill:#ff0000;stroke:#ff0000;" x="272.600816" xlink:href="#m3b3a2714e3" y="294.152427"/>
     <use style="fill:#ff0000;stroke:#ff0000;" x="279.226419" xlink:href="#m3b3a2714e3" y="293.720271"/>
     <use style="fill:#ff0000;stroke:#ff0000;" x="285.852022" xlink:href="#m3b3a2714e3" y="293.347011"/>
     <use style="fill:#ff0000;stroke:#ff0000;" x="292.477625" xlink:href="#m3b3a2714e3" y="292.633428"/>
     <use style="fill:#ff0000;stroke:#ff0000;" x="299.103228" xlink:href="#m3b3a2714e3" y="291.883321"/>
     <use style="fill:#ff0000;stroke:#ff0000;" x="305.728831" xlink:href="#m3b3a2714e3" y="291.015041"/>
     <use style="fill:#ff0000;stroke:#ff0000;" x="312.354434" xlink:href="#m3b3a2714e3" y="289.392018"/>
     <use style="fill:#ff0000;stroke:#ff0000;" x="318.980037" xlink:href="#m3b3a2714e3" y="287.957251"/>
     <use style="fill:#ff0000;stroke:#ff0000;" x="325.60564" xlink:href="#m3b3a2714e3" y="286.116906"/>
     <use style="fill:#ff0000;stroke:#ff0000;" x="332.231243" xlink:href="#m3b3a2714e3" y="283.127237"/>
     <use style="fill:#ff0000;stroke:#ff0000;" x="338.856846" xlink:href="#m3b3a2714e3" y="280.165917"/>
     <use style="fill:#ff0000;stroke:#ff0000;" x="345.482449" xlink:href="#m3b3a2714e3" y="275.390879"/>
     <use style="fill:#ff0000;stroke:#ff0000;" x="352.108052" xlink:href="#m3b3a2714e3" y="267.588359"/>
     <use style="fill:#ff0000;stroke:#ff0000;" x="358.733655" xlink:href="#m3b3a2714e3" y="256.328161"/>
     <use style="fill:#ff0000;stroke:#ff0000;" x="365.359258" xlink:href="#m3b3a2714e3" y="241.889703"/>
     <use style="fill:#ff0000;stroke:#ff0000;" x="371.984861" xlink:href="#m3b3a2714e3" y="213.815526"/>
     <use style="fill:#ff0000;stroke:#ff0000;" x="378.610464" xlink:href="#m3b3a2714e3" y="188.756642"/>
     <use style="fill:#ff0000;stroke:#ff0000;" x="385.236067" xlink:href="#m3b3a2714e3" y="156.502551"/>
     <use style="fill:#ff0000;stroke:#ff0000;" x="391.86167" xlink:href="#m3b3a2714e3" y="109.6402"/>
     <use style="fill:#ff0000;stroke:#ff0000;" x="398.487273" xlink:href="#m3b3a2714e3" y="53.568"/>
    </g>
   </g>
   <g id="line2d_16">
    <g clip-path="url(#p25482af7df)">
     <use style="fill:#ff0000;stroke:#ff0000;" x="73.832727" xlink:href="#m3b3a2714e3" y="295.485658"/>
     <use style="fill:#ff0000;stroke:#ff0000;" x="80.45833" xlink:href="#m3b3a2714e3" y="295.487044"/>
     <use style="fill:#ff0000;stroke:#ff0000;" x="87.083933" xlink:href="#m3b3a2714e3" y="295.488"/>
     <use style="fill:#ff0000;stroke:#ff0000;" x="93.709536" xlink:href="#m3b3a2714e3" y="295.486375"/>
     <use style="fill:#ff0000;stroke:#ff0000;" x="100.335139" xlink:href="#m3b3a2714e3" y="295.48298"/>
     <use style="fill:#ff0000;stroke:#ff0000;" x="106.960742" xlink:href="#m3b3a2714e3" y="295.485801"/>
     <use style="fill:#ff0000;stroke:#ff0000;" x="113.586345" xlink:href="#m3b3a2714e3" y="295.483172"/>
     <use style="fill:#ff0000;stroke:#ff0000;" x="120.211948" xlink:href="#m3b3a2714e3" y="295.481451"/>
     <use style="fill:#ff0000;stroke:#ff0000;" x="126.837551" xlink:href="#m3b3a2714e3" y="295.48059"/>
     <use style="fill:#ff0000;stroke:#ff0000;" x="133.463154" xlink:href="#m3b3a2714e3" y="295.477292"/>
     <use style="fill:#ff0000;stroke:#ff0000;" x="140.088757" xlink:href="#m3b3a2714e3" y="295.476097"/>
     <use style="fill:#ff0000;stroke:#ff0000;" x="146.71436" xlink:href="#m3b3a2714e3" y="295.472655"/>
     <use style="fill:#ff0000;stroke:#ff0000;" x="153.339963" xlink:href="#m3b3a2714e3" y="295.468543"/>
     <use style="fill:#ff0000;stroke:#ff0000;" x="159.965566" xlink:href="#m3b3a2714e3" y="295.463859"/>
     <use style="fill:#ff0000;stroke:#ff0000;" x="166.591169" xlink:href="#m3b3a2714e3" y="295.455636"/>
     <use style="fill:#ff0000;stroke:#ff0000;" x="173.216772" xlink:href="#m3b3a2714e3" y="295.450043"/>
     <use style="fill:#ff0000;stroke:#ff0000;" x="179.842375" xlink:href="#m3b3a2714e3" y="295.433168"/>
     <use style="fill:#ff0000;stroke:#ff0000;" x="186.467978" xlink:href="#m3b3a2714e3" y="295.417153"/>
     <use style="fill:#ff0000;stroke:#ff0000;" x="193.093581" xlink:href="#m3b3a2714e3" y="295.395641"/>
     <use style="fill:#ff0000;stroke:#ff0000;" x="199.719184" xlink:href="#m3b3a2714e3" y="295.392581"/>
     <use style="fill:#ff0000;stroke:#ff0000;" x="206.344787" xlink:href="#m3b3a2714e3" y="295.365763"/>
     <use style="fill:#ff0000;stroke:#ff0000;" x="212.97039" xlink:href="#m3b3a2714e3" y="295.333829"/>
     <use style="fill:#ff0000;stroke:#ff0000;" x="219.595993" xlink:href="#m3b3a2714e3" y="295.277037"/>
     <use style="fill:#ff0000;stroke:#ff0000;" x="226.221596" xlink:href="#m3b3a2714e3" y="295.250314"/>
     <use style="fill:#ff0000;stroke:#ff0000;" x="232.847199" xlink:href="#m3b3a2714e3" y="295.170767"/>
     <use style="fill:#ff0000;stroke:#ff0000;" x="239.472801" xlink:href="#m3b3a2714e3" y="295.089307"/>
     <use style="fill:#ff0000;stroke:#ff0000;" x="246.098404" xlink:href="#m3b3a2714e3" y="294.985523"/>
     <use style="fill:#ff0000;stroke:#ff0000;" x="252.724007" xlink:href="#m3b3a2714e3" y="294.847415"/>
     <use style="fill:#ff0000;stroke:#ff0000;" x="259.34961" xlink:href="#m3b3a2714e3" y="294.649981"/>
     <use style="fill:#ff0000;stroke:#ff0000;" x="265.975213" xlink:href="#m3b3a2714e3" y="294.444372"/>
     <use style="fill:#ff0000;stroke:#ff0000;" x="272.600816" xlink:href="#m3b3a2714e3" y="294.152427"/>
     <use style="fill:#ff0000;stroke:#ff0000;" x="279.226419" xlink:href="#m3b3a2714e3" y="293.720271"/>
     <use style="fill:#ff0000;stroke:#ff0000;" x="285.852022" xlink:href="#m3b3a2714e3" y="293.347011"/>
     <use style="fill:#ff0000;stroke:#ff0000;" x="292.477625" xlink:href="#m3b3a2714e3" y="292.633428"/>
     <use style="fill:#ff0000;stroke:#ff0000;" x="299.103228" xlink:href="#m3b3a2714e3" y="291.883321"/>
     <use style="fill:#ff0000;stroke:#ff0000;" x="305.728831" xlink:href="#m3b3a2714e3" y="291.015041"/>
     <use style="fill:#ff0000;stroke:#ff0000;" x="312.354434" xlink:href="#m3b3a2714e3" y="289.392018"/>
     <use style="fill:#ff0000;stroke:#ff0000;" x="318.980037" xlink:href="#m3b3a2714e3" y="287.957251"/>
     <use style="fill:#ff0000;stroke:#ff0000;" x="325.60564" xlink:href="#m3b3a2714e3" y="286.116906"/>
     <use style="fill:#ff0000;stroke:#ff0000;" x="332.231243" xlink:href="#m3b3a2714e3" y="283.127237"/>
     <use style="fill:#ff0000;stroke:#ff0000;" x="338.856846" xlink:href="#m3b3a2714e3" y="280.165917"/>
     <use style="fill:#ff0000;stroke:#ff0000;" x="345.482449" xlink:href="#m3b3a2714e3" y="275.390879"/>
     <use style="fill:#ff0000;stroke:#ff0000;" x="352.108052" xlink:href="#m3b3a2714e3" y="267.588359"/>
     <use style="fill:#ff0000;stroke:#ff0000;" x="358.733655" xlink:href="#m3b3a2714e3" y="256.328161"/>
     <use style="fill:#ff0000;stroke:#ff0000;" x="365.359258" xlink:href="#m3b3a2714e3" y="241.889703"/>
     <use style="fill:#ff0000;stroke:#ff0000;" x="371.984861" xlink:href="#m3b3a2714e3" y="213.815526"/>
     <use style="fill:#ff0000;stroke:#ff0000;" x="378.610464" xlink:href="#m3b3a2714e3" y="188.756642"/>
     <use style="fill:#ff0000;stroke:#ff0000;" x="385.236067" xlink:href="#m3b3a2714e3" y="156.502551"/>
     <use style="fill:#ff0000;stroke:#ff0000;" x="391.86167" xlink:href="#m3b3a2714e3" y="109.6402"/>
     <use style="fill:#ff0000;stroke:#ff0000;" x="398.487273" xlink:href="#m3b3a2714e3" y="53.568"/>
    </g>
   </g>
   <g id="patch_3">
    <path d="M 57.6 307.584 
L 57.6 41.472 
" style="fill:none;stroke:#000000;stroke-linecap:square;stroke-linejoin:miter;stroke-width:0.8;"/>
   </g>
   <g id="patch_4">
    <path d="M 414.72 307.584 
L 414.72 41.472 
" style="fill:none;stroke:#000000;stroke-linecap:square;stroke-linejoin:miter;stroke-width:0.8;"/>
   </g>
   <g id="patch_5">
    <path d="M 57.6 307.584 
L 414.72 307.584 
" style="fill:none;stroke:#000000;stroke-linecap:square;stroke-linejoin:miter;stroke-width:0.8;"/>
   </g>
   <g id="patch_6">
    <path d="M 57.6 41.472 
L 414.72 41.472 
" style="fill:none;stroke:#000000;stroke-linecap:square;stroke-linejoin:miter;stroke-width:0.8;"/>
   </g>
  </g>
 </g>
 <defs>
  <clipPath id="p25482af7df">
   <rect height="266.112" width="357.12" x="57.6" y="41.472"/>
  </clipPath>
 </defs>
</svg>
